<?xml version="1.0" encoding="utf-8"?>
<!-- Generator: Adobe Illustrator 16.0.0, SVG Export Plug-In . SVG Version: 6.00 Build 0)  -->
<!DOCTYPE svg PUBLIC "-//W3C//DTD SVG 1.1//EN" "http://www.w3.org/Graphics/SVG/1.1/DTD/svg11.dtd">
<svg version="1.1" id="Layer_1" xmlns="http://www.w3.org/2000/svg" xmlns:xlink="http://www.w3.org/1999/xlink" x="0px" y="0px"
	 width="1008px" height="648px" viewBox="0 0 1008 648" enable-background="new 0 0 1008 648" xml:space="preserve">
<path fill-rule="evenodd" clip-rule="evenodd" fill="#231F20" d="M982.114,286.922H475.433c-4.615,0-8.356-3.734-8.356-8.341
	v-26.837l96.34-232.182H894.14l96.33,232.162v26.857C990.47,283.188,986.729,286.922,982.114,286.922z M662.587,87.69
	l-114.41,114.211l12.717,12.739l114.41-114.211L662.587,87.69z M801.035,67.676l-12.688,12.767l114.93,114.213l12.688-12.768
	L801.035,67.676z M112.703,286.922L16.53,54.741V27.903c0-4.606,3.734-8.341,8.341-8.341h505.805c4.606,0,8.341,3.734,8.341,8.341
	v26.857l-96.164,232.162H112.703z M110.2,91.85l-12.728,12.727l114.212,114.212l12.728-12.727L110.2,91.85z M451.958,111.835
	L337.228,226.047l12.699,12.757l114.731-114.212L451.958,111.835z M905.063,458.438H83.091V296.923h821.971V458.438z
	 M905.063,629.438H83.091V467.923h821.971V629.438z"/>
</svg>
